<svg xmlns="http://www.w3.org/2000/svg" width="256" height="256" viewBox="0 0 100 100"><rect width="100" height="100" rx="50" fill="#ed6677"></rect><path fill="#fff" d="M81.49 36.95L81.49 81.95L68.92 81.95L68.92 36.95Q68.92 35.63 68.41 34.49Q67.91 33.34 67.05 32.49Q66.19 31.63 65.05 31.15Q63.91 30.66 62.59 30.66L62.59 30.66Q61.27 30.66 60.13 31.15Q58.99 31.63 58.13 32.49Q57.27 33.34 56.79 34.49Q56.31 35.63 56.31 36.95L56.31 36.95L56.31 81.95L43.69 81.95L43.69 36.95Q43.69 35.63 43.21 34.49Q42.73 33.34 41.87 32.49Q41.01 31.63 39.87 31.15Q38.73 30.66 37.41 30.66L37.41 30.66Q36.09 30.66 34.95 31.15Q33.81 31.63 32.95 32.49Q32.09 33.34 31.61 34.49Q31.13 35.63 31.13 36.95L31.13 36.95L31.13 81.95L18.51 81.95L18.51 36.95Q18.51 33.04 19.99 29.59Q21.46 26.14 24.03 23.57Q26.60 21.00 30.05 19.52Q33.50 18.05 37.41 18.05L37.41 18.05Q40.93 18.05 44.18 19.30Q47.43 20.56 50.02 22.93L50.02 22.93Q52.61 20.56 55.84 19.30Q59.07 18.05 62.59 18.05L62.59 18.05Q66.50 18.05 69.95 19.52Q73.40 21.00 75.97 23.57Q78.54 26.14 80.01 29.59Q81.49 33.04 81.49 36.95L81.49 36.95Z"></path></svg>